<svg width="23" height="24" viewBox="0 0 23 24" fill="none" xmlns="http://www.w3.org/2000/svg">
<path d="M17.46 7.8858C17.46 6.35812 16.8763 4.89302 15.8374 3.81279C14.7984 2.73256 13.3893 2.12569 11.92 2.12569C10.4507 2.12569 9.04159 2.73256 8.00264 3.81279C6.96369 4.89302 6.38001 6.35812 6.38001 7.8858C6.38001 14.6059 3.61002 16.526 3.61002 16.526H20.23C20.23 16.526 17.46 14.6059 17.46 7.8858Z" stroke="white" stroke-width="1.49714" stroke-linecap="round" stroke-linejoin="round"/>
<path d="M13.5174 20.366C13.355 20.657 13.122 20.8985 12.8417 21.0664C12.5614 21.2343 12.2435 21.3226 11.92 21.3226C11.5965 21.3226 11.2786 21.2343 10.9983 21.0664C10.718 20.8985 10.485 20.657 10.3226 20.366" stroke="white" stroke-width="1.49714" stroke-linecap="round" stroke-linejoin="round"/>
</svg>
